<svg width="402" height="400" fill="none" xmlns="http://www.w3.org/2000/svg"><path d="M274.808 385.334a.5.5 0 00-.259-.658l-4.124-1.801a.5.5 0 10-.4.917l3.666 1.6-1.6 3.666a.5.5 0 10.916.4l1.801-4.124zm-.641-.666a200.434 200.434 0 01-143.872.947l-.353.936a201.433 201.433 0 00144.59-.952l-.365-.931zm-143.872.947c-46.406-17.5-84.59-51.582-107.098-95.59l-.89.455c22.62 44.23 60.997 78.483 107.635 96.071l.353-.936zm-107.098-95.59A197.6 197.6 0 018.573 147.616l-.965-.265A198.6 198.6 0 0022.307 290.48l.89-.455zM8.573 147.616C21.669 99.988 52.136 58.927 94.026 32.45l-.534-.846c-42.1 26.61-72.72 67.878-85.884 115.747l.965.265zM94.026 32.45c41.89-26.478 92.195-36.47 141.091-28.025l.171-.986c-49.141-8.486-99.697 1.556-141.796 28.165l.534.846zM235.117 4.425c48.897 8.444 92.875 34.72 123.347 73.693l.787-.616c-30.625-39.17-74.823-65.576-123.963-74.063l-.171.986zm123.347 73.693c30.471 38.974 45.25 87.849 41.45 137.081l.997.077c3.819-49.482-11.034-98.604-41.66-137.774l-.787.616zm41.45 137.081c-3.8 49.233-25.905 95.29-62.001 129.177l.684.729c36.277-34.058 58.495-80.347 62.314-129.829l-.997-.077z" fill="#fff"/></svg>