<svg width="59" height="20" fill="none" xmlns="http://www.w3.org/2000/svg"><path d="M20.505 12.663c0 1.063-.399 1.884-1.195 2.465-.797.582-1.904.872-3.32.872h-5.853V4.304h5.354c1.428 0 2.507.25 3.238.747.736.493 1.104 1.223 1.104 2.192 0 .664-.186 1.225-.557 1.685-.365.454-.924.76-1.676.921.946.11 1.665.41 2.158.897.498.481.747 1.12.747 1.917zm-3.138-5.088c0-.526-.169-.9-.506-1.12-.332-.222-.828-.333-1.486-.333h-2.79V9.02h2.807c.691 0 1.192-.119 1.502-.357.316-.243.473-.606.473-1.087zm.68 4.897c0-1.095-.785-1.643-2.357-1.643h-3.104v3.353h3.196c.785 0 1.358-.141 1.718-.423.365-.288.548-.717.548-1.287zm6.824-.913V16h-2.449V4.304h5.844c1.395 0 2.471.302 3.23.905.757.598 1.136 1.458 1.136 2.582 0 .819-.232 1.527-.697 2.125-.465.592-1.093.982-1.884 1.17L33.213 16h-2.756l-2.714-4.44h-2.872zm5.296-3.669c0-.559-.18-.98-.54-1.262-.36-.282-.899-.423-1.618-.423H24.87v3.453h3.204c.686 0 1.207-.155 1.56-.465.355-.31.532-.744.532-1.303zm7.313 5.122L36.442 16h-2.448L38.26 4.304h2.889L45.399 16h-2.424l-1.038-2.988H37.48zm2.225-6.907a12.85 12.85 0 01-.233.797c-.1.31-.171.529-.216.656l-1.228 3.61h3.362l-1.262-3.685c-.078-.226-.15-.456-.216-.689a25.153 25.153 0 00-.207-.689zm17.655 6.558c0 1.063-.398 1.884-1.195 2.465-.797.582-1.904.872-3.32.872h-5.852V4.304h5.354c1.427 0 2.506.25 3.237.747.736.493 1.104 1.223 1.104 2.192 0 .664-.185 1.225-.556 1.685-.365.454-.924.76-1.677.921.946.11 1.666.41 2.158.897.498.481.747 1.12.747 1.917zm-3.137-5.088c0-.526-.17-.9-.507-1.12-.332-.222-.827-.333-1.486-.333h-2.789V9.02h2.806c.692 0 1.193-.119 1.502-.357.316-.243.474-.606.474-1.087zm.68 4.897c0-1.095-.785-1.643-2.357-1.643H49.44v3.353h3.196c.786 0 1.359-.141 1.718-.423.366-.288.548-.717.548-1.287z" fill="#fff"/><circle cx="3.5" cy="12.5" r="3.5" fill="#FF5151"/></svg>