<svg width="40" height="40" fill="none" xmlns="http://www.w3.org/2000/svg"><path d="M9.917 35.833a2.328 2.328 0 01-1.709-.708 2.328 2.328 0 01-.708-1.708V6.583c0-.666.236-1.236.708-1.708a2.328 2.328 0 011.709-.708h14.458l8.125 8.125v21.125c0 .666-.236 1.236-.708 1.708a2.328 2.328 0 01-1.709.708H9.917zM22.833 12.5V6.042H9.917a.518.518 0 00-.375.166.518.518 0 00-.167.375v26.834c0 .139.056.264.167.375a.518.518 0 00.375.166h20.166a.518.518 0 00.375-.166.518.518 0 00.167-.375V12.5h-7.792z" fill="#5D009F"/><path d="M21.245 31h-1.917v-1.667h-3.625v-1.875h7.292v-3.416H16.66a.931.931 0 01-.687-.271.931.931 0 01-.27-.688v-5.291c0-.278.09-.507.27-.688.18-.18.41-.27.688-.27h2.666v-1.667h1.917v1.666h3.625v1.917h-7.292v3.417h6.334c.277 0 .506.09.687.27.18.181.27.396.27.646v5.334c0 .25-.09.465-.27.646-.18.18-.41.27-.688.27h-2.666V31z" fill="#fff"/></svg>