<svg width="40" height="40" fill="none" xmlns="http://www.w3.org/2000/svg"><path d="M.828 35.875v-1.833c0-1.056.563-1.917 1.688-2.584s2.59-1 4.396-1c.333 0 .646.007.937.021.292.014.577.049.854.104a7.05 7.05 0 00-.52 1.396 6.067 6.067 0 00-.188 1.521v2.375H.828zm10 0v-2.292c0-1.61.848-2.895 2.542-3.854 1.695-.958 3.903-1.437 6.625-1.437 2.75 0 4.965.48 6.646 1.437 1.68.959 2.521 2.243 2.521 3.854v2.292H10.828zm21.167 0V33.5c0-.528-.056-1.035-.167-1.52a6.156 6.156 0 00-.5-1.397c.278-.055.563-.09.855-.104.291-.014.604-.02.937-.02 1.806 0 3.264.332 4.375 1 1.111.666 1.667 1.527 1.667 2.583v1.833h-7.167zm-12-5.5c-2.055 0-3.736.292-5.042.875-1.305.583-1.972 1.333-2 2.25v.292h14.084v-.334c-.028-.889-.688-1.625-1.98-2.208-1.291-.583-2.979-.875-5.062-.875zM6.912 29.042c-.75 0-1.382-.264-1.896-.792a2.598 2.598 0 01-.77-1.875c0-.722.256-1.34.77-1.854s1.146-.77 1.896-.77c.722 0 1.34.256 1.854.77s.771 1.132.771 1.854a2.6 2.6 0 01-.77 1.875c-.515.528-1.133.792-1.855.792zm26.208 0c-.722 0-1.347-.264-1.875-.792s-.792-1.153-.792-1.875.264-1.34.792-1.854a2.598 2.598 0 011.875-.77c.75 0 1.375.256 1.875.77s.75 1.132.75 1.854c0 .722-.25 1.347-.75 1.875s-1.125.792-1.875.792zm-13.125-2c-1.195 0-2.215-.417-3.062-1.25s-1.27-1.861-1.27-3.084c0-1.222.423-2.243 1.27-3.062.847-.82 1.867-1.229 3.062-1.229 1.222 0 2.25.41 3.083 1.23.834.818 1.25 1.84 1.25 3.061 0 1.195-.416 2.216-1.25 3.063-.833.847-1.86 1.271-3.083 1.271zm0-6.542c-.611 0-1.139.208-1.583.625-.444.417-.667.944-.667 1.583 0 .64.223 1.174.667 1.604a2.2 2.2 0 001.583.646c.639 0 1.174-.215 1.604-.646.43-.43.646-.965.646-1.604 0-.639-.215-1.166-.646-1.583-.43-.417-.965-.625-1.604-.625z" fill="#fff"/><path d="M2.828 22.75a14.457 14.457 0 01-1.5-3.375A11.97 11.97 0 01.828 16c0-2.833.986-5.236 2.96-7.208 1.971-1.973 4.374-2.959 7.207-2.959 1.722 0 3.361.403 4.917 1.21 1.556.804 2.916 1.93 4.083 3.374 1.167-1.445 2.528-2.57 4.083-3.375a10.547 10.547 0 014.917-1.209c2.833 0 5.236.986 7.208 2.96 1.973 1.971 2.96 4.374 2.96 7.207 0 1.083-.167 2.187-.5 3.312-.334 1.125-.834 2.271-1.5 3.438a3.406 3.406 0 00-.772-.77 4.802 4.802 0 00-.938-.522c.528-.944.931-1.867 1.21-2.77A9.12 9.12 0 0037.077 16c0-2.25-.785-4.16-2.354-5.729-1.57-1.57-3.479-2.354-5.729-2.354-1.639 0-3.173.486-4.604 1.458-1.43.972-2.896 2.403-4.396 4.292-1.5-1.89-2.965-3.32-4.396-4.292-1.43-.972-2.965-1.458-4.604-1.458-2.25 0-4.16.785-5.729 2.354-1.57 1.57-2.354 3.48-2.354 5.73 0 .888.139 1.79.416 2.707a13.18 13.18 0 001.21 2.75 6.964 6.964 0 00-.939.563 3.846 3.846 0 00-.77.73z" fill="#5D009F"/></svg>