<svg width="16" height="16" fill="none" xmlns="http://www.w3.org/2000/svg"><path d="M7.999 6a2 2 0 100 4 2 2 0 000-4zm0-1.333a3.333 3.333 0 110 6.666 3.333 3.333 0 010-6.666zm4.333-.167a.834.834 0 11-1.667 0 .834.834 0 011.667 0zM7.999 2.667c-1.65 0-1.919.005-2.686.038-.523.025-.874.095-1.199.222-.29.112-.498.246-.72.469-.209.201-.37.447-.47.72-.126.326-.196.676-.22 1.198-.035.736-.039.994-.039 2.686 0 1.65.005 1.919.039 2.686.025.522.095.873.22 1.198.114.29.247.499.469.72.224.224.433.358.72.469.329.127.68.198 1.2.222.736.034.993.039 2.686.039 1.649 0 1.918-.005 2.686-.04.521-.024.872-.094 1.198-.22.288-.113.498-.246.72-.468.224-.224.358-.433.469-.72.127-.329.197-.68.221-1.2.035-.736.039-.993.039-2.686 0-1.65-.005-1.918-.039-2.686-.024-.521-.094-.873-.221-1.199a1.94 1.94 0 00-.469-.72 1.923 1.923 0 00-.72-.469c-.326-.127-.677-.197-1.198-.22-.736-.035-.994-.04-2.686-.04zm0-1.333c1.811 0 2.037.006 2.748.04.71.033 1.193.144 1.618.31.44.169.811.398 1.182.768.339.333.601.737.768 1.182.165.424.277.908.31 1.618.032.71.04.937.04 2.748 0 1.812-.006 2.037-.04 2.748-.033.71-.145 1.194-.31 1.619a3.249 3.249 0 01-.768 1.181 3.278 3.278 0 01-1.182.769c-.424.165-.908.277-1.618.31-.711.031-.937.04-2.748.04-1.812 0-2.038-.007-2.748-.04-.71-.034-1.194-.146-1.619-.31a3.26 3.26 0 01-1.181-.769 3.27 3.27 0 01-.769-1.181c-.165-.425-.277-.909-.31-1.619-.031-.71-.04-.936-.04-2.748 0-1.811.007-2.037.04-2.748.033-.71.145-1.193.31-1.618a3.26 3.26 0 01.769-1.182 3.262 3.262 0 011.181-.768c.425-.166.908-.277 1.619-.31.71-.032.936-.04 2.748-.04z" fill="#fff"/></svg>