<svg width="40" height="40" fill="none" xmlns="http://www.w3.org/2000/svg"><path d="M8.245 35.833a2.328 2.328 0 01-1.709-.708 2.328 2.328 0 01-.708-1.708V9.292c0-.64.236-1.202.708-1.688a2.295 2.295 0 011.709-.729h3.083V3.958h2.084v2.917h13.25V3.958h2.041v2.917h3.042c.666 0 1.236.243 1.708.73.472.485.708 1.048.708 1.687v24.125c0 .666-.236 1.236-.708 1.708a2.328 2.328 0 01-1.708.708h-23.5zm-.542-2.416c0 .139.056.264.167.375a.518.518 0 00.375.166h23.5a.518.518 0 00.375-.166.518.518 0 00.166-.375V9.292a.454.454 0 00-.166-.354.555.555 0 00-.375-.146h-23.5a.555.555 0 00-.375.146.454.454 0 00-.167.354v24.125zm7.792.541V30l-3.125-3.667a4.39 4.39 0 01-.73-1.145c-.208-.459-.312-.993-.312-1.605 0-.333.035-.66.104-.979.07-.32.188-.632.354-.937a4.59 4.59 0 01-.333-.896 4.033 4.033 0 01-.125-1.021c0-.611.104-1.146.313-1.604A4.39 4.39 0 0112.37 17l3.125-3.667V8.792h2v4.833c0 .139-.097.403-.292.792l-3.333 3.916a2.123 2.123 0 00-.417.688 2.182 2.182 0 00-.125.729c0 .556.18 1.035.542 1.438.36.402.82.604 1.375.604.25 0 .486-.042.708-.125.222-.084.417-.223.584-.417a4.962 4.962 0 011.604-1.083 4.757 4.757 0 013.708 0c.597.25 1.132.61 1.604 1.083a1.77 1.77 0 001.292.542c.555 0 1.014-.202 1.375-.605.36-.402.541-.867.541-1.395 0-.25-.048-.493-.145-.73a3.137 3.137 0 00-.396-.687l-3.334-3.958a.886.886 0 01-.229-.375 1.443 1.443 0 01-.062-.417V8.792h2v4.541l3.125 3.75c.36.39.625.813.791 1.271.167.459.25.938.25 1.438 0 .333-.048.66-.145.979-.098.32-.216.618-.354.896.166.305.291.618.375.937.083.32.125.646.125.98 0 .61-.105 1.145-.313 1.604a4.39 4.39 0 01-.73 1.145L24.496 30v3.958h-2v-4.25c0-.166.097-.43.291-.791L26.12 25c.222-.25.375-.52.458-.813.084-.291.097-.59.042-.895a3.466 3.466 0 01-1.834.5c-.5 0-.993-.105-1.479-.313a3.71 3.71 0 01-1.27-.896 2.164 2.164 0 00-.917-.604 3.415 3.415 0 00-1.125-.187c-.361 0-.722.062-1.084.187-.36.125-.68.327-.958.604a3.71 3.71 0 01-1.27.896 3.63 3.63 0 01-3.313-.187 1.93 1.93 0 00.042.895c.083.292.236.563.458.813l3.333 3.917c.084.139.153.27.209.395a.965.965 0 01.083.396v4.25h-2zm-7.792-.541v.541V8.792v24.625z" fill="#5D009F"/><path d="M15.495 33.958V30l-3.125-3.667a4.39 4.39 0 01-.73-1.145c-.208-.459-.312-.993-.312-1.605 0-.333.035-.66.104-.979.07-.32.188-.632.354-.937a4.59 4.59 0 01-.333-.896 4.033 4.033 0 01-.125-1.021c0-.611.104-1.146.313-1.604A4.39 4.39 0 0112.37 17l3.125-3.667V8.792h2v4.833c0 .139-.097.403-.292.792l-3.333 3.916a2.122 2.122 0 00-.417.688 2.182 2.182 0 00-.125.729c0 .556.18 1.035.542 1.438.36.402.82.604 1.375.604.25 0 .486-.042.708-.125.222-.084.417-.223.584-.417a4.962 4.962 0 011.604-1.083 4.757 4.757 0 013.708 0c.597.25 1.132.61 1.604 1.083a1.77 1.77 0 001.292.542c.555 0 1.014-.202 1.375-.605.36-.402.541-.867.541-1.395 0-.25-.048-.493-.145-.73a3.134 3.134 0 00-.396-.687l-3.334-3.958a.886.886 0 01-.229-.375 1.443 1.443 0 01-.062-.417V8.792h2v4.541l3.125 3.75c.36.39.625.813.791 1.271.167.459.25.938.25 1.438 0 .333-.048.66-.145.979-.098.32-.216.618-.354.896.166.305.291.618.375.937.083.32.125.646.125.98 0 .61-.105 1.145-.313 1.604a4.39 4.39 0 01-.73 1.145L24.496 30v3.958h-2v-4.25c0-.166.097-.43.291-.791L26.12 25c.222-.25.375-.52.458-.813a1.95 1.95 0 00.042-.895 3.466 3.466 0 01-1.834.5c-.5 0-.993-.105-1.479-.313a3.711 3.711 0 01-1.27-.896 2.164 2.164 0 00-.917-.604 3.415 3.415 0 00-1.125-.187c-.361 0-.722.062-1.084.187-.36.125-.68.327-.958.604a3.711 3.711 0 01-1.27.896 3.63 3.63 0 01-3.313-.187 1.93 1.93 0 00.042.895c.083.292.236.563.458.813l3.333 3.917c.084.139.153.27.209.395a.965.965 0 01.083.396v4.25h-2z" fill="#fff"/></svg>