<svg width="79" height="86" fill="none" xmlns="http://www.w3.org/2000/svg"><g clip-path="url(#clip0_393_281)"><path d="M53.98 3.882c1.089 0 1.972-.87 1.972-1.941C55.952.869 55.069 0 53.98 0c-1.09 0-1.972.869-1.972 1.94 0 1.073.883 1.942 1.972 1.942z" fill="#07ABDD"/><path d="M48.644 13.1c1.089 0 1.972-.869 1.972-1.94 0-1.072-.883-1.941-1.972-1.941-1.09 0-1.972.869-1.972 1.94 0 1.072.883 1.941 1.972 1.941z" fill="#5D009F"/><path d="M29.292 5.944c1.09 0 1.972-.869 1.972-1.94 0-1.073-.883-1.941-1.972-1.941s-1.972.868-1.972 1.94.883 1.941 1.972 1.941z" fill="#07ABDD"/><path d="M39.316 11.604c1.089 0 1.972-.869 1.972-1.94 0-1.072-.883-1.941-1.972-1.941-1.09 0-1.972.869-1.972 1.94 0 1.072.883 1.941 1.972 1.941z" fill="#5D009F"/><path d="M31.019 27.616c1.089 0 1.972-.869 1.972-1.94 0-1.073-.883-1.942-1.972-1.942-1.09 0-1.972.87-1.972 1.941 0 1.072.883 1.94 1.972 1.94z" fill="#07ABDD"/><path d="M25.019 37.36c1.089 0 1.972-.869 1.972-1.94 0-1.073-.883-1.942-1.972-1.942-1.09 0-1.972.87-1.972 1.941 0 1.072.883 1.941 1.972 1.941z" fill="#5D009F"/><path d="M42.144 30.688c1.089 0 1.972-.869 1.972-1.94 0-1.073-.883-1.941-1.972-1.941-1.09 0-1.972.869-1.972 1.94 0 1.072.883 1.941 1.972 1.941z" fill="#07ABDD"/><path d="M52.175 36.35c1.09 0 1.972-.87 1.972-1.942 0-1.071-.883-1.94-1.972-1.94s-1.972.869-1.972 1.94c0 1.072.883 1.941 1.972 1.941z" fill="#5D009F"/><path d="M6.579 69.14l-1.561-.769c-1.931-.93-3.862-2.345-3.862-5.58 0-3.396 2.67-6.267 6.327-6.267 2.547 0 5.012 1.213 6.162 2.022l-2.506 4.326c-.493-.404-2.3-1.294-3.45-1.294-.535 0-.987.364-.987.97 0 .607.41.85 1.274 1.254l2.218 1.092c2.177 1.092 3.574 2.79 3.574 5.377 0 3.68-2.752 6.47-6.45 6.47-3.163 0-5.998-1.537-7.271-2.467l2.835-4.609c.328.283 2.752 1.82 4.477 1.82.411 0 .904-.284.904-.85-.04-.647-.698-1.05-1.684-1.496zm15.939-1.092c0 1.536.493 2.547 1.766 2.547 1.274 0 1.767-1.01 1.767-2.547v-11.24h6.244V68.37c0 4.73-3.163 8.37-8.01 8.37-4.848 0-8.012-3.599-8.012-8.37V56.808h6.245v11.24zm33.399-11.24v19.407h-6.244v-2.587c0-1.658.041-3.397.205-5.055l-.123-.04c-.452.809-1.232 1.981-2.013 3.073l-1.849 2.547h-.287l-1.767-2.466c-.78-1.092-1.643-2.386-2.095-3.154l-.123.04c.164 1.294.205 3.276.205 4.812v2.87h-6.162V56.849h5.012l5.053 6.954h.123l5.053-6.954h5.012v-.04zm12.941-.243c5.71 0 10.147 4.488 10.147 10.109 0 5.62-4.436 10.108-10.147 10.108-5.71 0-10.147-4.488-10.147-10.108s4.437-10.109 10.147-10.109zm0 14.03c2.177 0 3.903-1.698 3.903-3.921 0-2.265-1.726-3.922-3.903-3.922s-3.903 1.698-3.903 3.922c0 2.223 1.685 3.921 3.903 3.921zM1.068 82.362v3.558h-.37v-3.558H0v-.324h1.767v.324h-.699zm3.243 3.557l-.205-.93H3.12l-.205.93h-.33l.864-3.882h.37l.862 3.882h-.37zm-.698-3.316l-.205.93-.247 1.132h.863l-.247-1.132-.164-.93zm2.34 3.316v-3.882h.329v3.558h1.232v.324h-1.56zm2.875 0v-3.882h1.643v.324H9.157v1.415h1.15v.323h-1.15v1.496h1.314v.324H8.828zm3.329-2.952v2.912h-.329v-3.882h.329c.04.04.04.121.082.243.041.121.082.202.164.364.041.12.123.242.165.404.04.121.123.283.164.404.041.121.123.243.164.364a.654.654 0 00.123.243l.411.97h.041v-2.952h.329v3.882h-.329c-.04-.04-.04-.121-.082-.243a2.533 2.533 0 00-.164-.364c-.041-.12-.123-.242-.164-.404-.041-.121-.124-.283-.165-.404-.04-.121-.123-.243-.164-.324-.041-.12-.082-.161-.082-.242l-.493-.97zm3.943-.607v3.559h-.37V82.36h-.699v-.324h1.767v.324h-.699zm1.853 3.559v-.404h.41v.404h-.41zm2.631-3.559v3.559h-.37V82.36h-.698v-.324h1.766v.324h-.698zm2.01 3.559v-3.882h1.643v.324h-1.315v1.415h1.15v.323h-1.15v1.496h1.315v.324h-1.643zm3.827-3.921c.288 0 .493.08.657.243.165.161.247.364.247.647l-.37.08c0-.202-.04-.364-.123-.444-.082-.122-.205-.162-.37-.162-.082 0-.164 0-.246.04a.318.318 0 00-.165.162c-.04.081-.082.121-.082.202 0 .081-.04.162-.04.243v2.062c0 .08 0 .162.04.202 0 .08.041.121.082.202.042.04.083.081.165.122.082.04.164.04.246.04.165 0 .288-.04.37-.162.082-.08.123-.242.164-.444l.37.08c0 .283-.082.486-.246.647-.165.162-.37.202-.617.202-.287 0-.493-.08-.657-.242-.164-.162-.205-.364-.205-.647v-2.022c0-.121 0-.283.04-.404.042-.121.083-.243.165-.323a.738.738 0 01.288-.203c0-.08.123-.121.287-.121zm3.726 3.921v-1.82h-1.068v1.82h-.329v-3.882h.329v1.739h1.068v-1.739h.328v3.882h-.328zm2.221-2.952v2.912h-.329v-3.882h.329c.04.04.04.121.082.243.041.121.082.202.164.364.041.12.123.242.165.404.04.121.123.283.164.404.04.121.123.243.164.364a.654.654 0 00.123.243l.411.97h.041v-2.952h.329v3.882h-.329c-.04-.04-.04-.121-.082-.243-.04-.12-.082-.202-.164-.364-.041-.12-.123-.242-.164-.404-.042-.121-.124-.283-.165-.404-.04-.121-.123-.243-.164-.324-.041-.12-.082-.161-.082-.242l-.493-.97zm3.21 2.952v-3.882h.37v3.882h-.37zm3.696-.97c0 .243-.04.445-.123.566l.329.243-.165.202-.328-.243c-.123.122-.329.202-.617.202-.287 0-.533-.08-.657-.242-.164-.162-.205-.364-.205-.688v-2.021c0-.121 0-.283.04-.404.042-.122.083-.243.165-.324.082-.08.164-.162.288-.202.123-.04.246-.081.41-.081.165 0 .33.04.411.08a.738.738 0 01.288.203c.082.08.123.202.164.324.041.12.041.242.041.404v1.981h-.04zm-.37-2.022c0-.08 0-.161-.04-.242 0-.081-.042-.121-.083-.202-.04-.04-.082-.122-.164-.122-.082-.04-.164-.04-.246-.04-.124 0-.206.04-.288.08-.082.041-.123.122-.164.163a.569.569 0 00-.082.242c0 .081-.042.162-.042.243v2.021c0 .081 0 .162.041.203.041.08.041.12.083.202.04.04.082.08.164.121.082.04.164.04.246.04.124 0 .247-.04.33-.08l-.37-.284.164-.202.328.243c0-.04.041-.08.041-.162v-2.224h.083zm3.618-.889v2.911c0 .323-.082.566-.205.728-.164.162-.37.242-.657.242-.288 0-.534-.08-.658-.242-.123-.162-.205-.364-.205-.688v-2.992h.329v2.993c0 .08 0 .161.04.202.042.08.042.12.083.202.04.04.082.08.164.121.082.04.164.04.247.04.205 0 .328-.08.41-.202a.805.805 0 00.124-.444v-2.952h.328v.08zm1.525 3.881v-3.882h1.643v.324h-1.314v1.415h1.15v.323h-1.15v1.496h1.314v.324h-1.643zm3.281 0v-.404h.41v.404h-.41zm2.42-3.559v3.559h-.37V82.36h-.698v-.324h1.766v.324h-.698zm1.971 3.559v-3.882h1.643v.324h-1.315v1.415h1.15v.323h-1.15v1.496h1.315v.324h-1.643zm3.858-3.921c.288 0 .493.08.658.243.164.161.246.364.246.647l-.37.08c0-.202-.04-.364-.123-.444-.082-.122-.205-.162-.37-.162-.082 0-.164 0-.246.04a.318.318 0 00-.164.162c-.041.081-.082.121-.082.202 0 .081-.041.162-.041.243v2.062c0 .08 0 .162.04.202 0 .08.042.121.083.202a.57.57 0 00.164.122c.082.04.164.04.246.04.165 0 .288-.04.37-.162.082-.08.123-.242.165-.444l.37.08c0 .283-.083.486-.247.647-.165.162-.37.202-.616.202-.288 0-.493-.08-.658-.242-.164-.162-.205-.364-.205-.647v-2.022c0-.121 0-.283.041-.404.041-.121.082-.243.164-.323a.736.736 0 01.288-.203c-.041-.08.123-.121.287-.121zm3.71 3.921v-1.82H58.22v1.82h-.328v-3.882h.328v1.739h1.068v-1.739h.33v3.882h-.33zm2.253-2.951v2.912h-.33v-3.882h.33c.04.04.04.121.082.243.04.12.082.202.164.364.041.12.123.242.164.404.041.121.124.283.165.404.04.121.123.243.164.364a.654.654 0 00.123.243l.411.97h.041v-2.95h.329v3.881h-.329c-.04-.04-.04-.121-.082-.243a2.518 2.518 0 00-.164-.364c-.041-.12-.123-.242-.165-.404-.04-.121-.123-.283-.164-.404-.041-.121-.123-.243-.164-.324-.041-.12-.082-.161-.082-.242l-.493-.97zm4.889 1.981c0 .323-.083.566-.206.728-.164.162-.37.242-.657.242-.288 0-.534-.08-.657-.242-.165-.162-.206-.364-.206-.688v-2.021c0-.121 0-.283.041-.404.041-.122.082-.243.165-.324.082-.08.164-.162.287-.202.123-.04.247-.081.41-.081.165 0 .33.04.412.08.123.041.205.122.287.203.082.08.124.202.165.324.04.12.04.242.04.404v1.981h-.081zm-.37-2.022c0-.08 0-.161-.041-.242 0-.081-.041-.121-.082-.202-.042-.04-.083-.122-.165-.122-.082-.04-.164-.04-.246-.04-.124 0-.206.04-.288.08-.082.041-.123.122-.164.163a.562.562 0 00-.082.242c0 .081-.041.162-.041.243v2.021c0 .081 0 .162.04.203.042.08.042.12.083.202.04.04.082.08.164.121.082.04.165.04.247.04.205 0 .328-.08.41-.202a.805.805 0 00.124-.444v-2.063h.04zm1.894 2.992v-3.882h.329v3.558h1.232v.324h-1.56zm4.601-.97c0 .323-.083.566-.206.728-.164.162-.37.242-.657.242-.288 0-.534-.08-.657-.242-.124-.162-.206-.364-.206-.688v-2.021c0-.121 0-.283.041-.404.041-.122.082-.243.165-.324.082-.08.164-.162.287-.202.123-.04.247-.081.41-.081.165 0 .33.04.412.08.123.041.205.122.287.203.082.08.124.202.165.324.04.12.04.242.04.404v1.981h-.081zm-.33-2.022c0-.08 0-.161-.04-.242 0-.081-.041-.121-.082-.202-.041-.04-.083-.122-.165-.122-.082-.04-.164-.04-.246-.04a.608.608 0 00-.288.08c-.082.041-.123.122-.164.163a.562.562 0 00-.082.242c0 .081-.041.162-.041.243v2.021c0 .081 0 .162.04.203.042.08.042.12.083.202.041.04.082.08.164.121.082.04.165.04.247.04.205 0 .328-.08.41-.202a.806.806 0 00.124-.444v-2.063h.04zm2.711 3.033c-.288 0-.493-.082-.657-.243-.165-.162-.247-.364-.247-.647v-2.022c0-.162 0-.283.041-.404.041-.122.082-.243.165-.324.082-.08.164-.162.287-.202.123-.04.247-.08.411-.08.288 0 .493.08.616.201.165.122.206.364.247.607l-.329.08c0-.201-.041-.363-.123-.444a.524.524 0 00-.37-.162c-.082 0-.164 0-.246.04a.318.318 0 00-.165.162c-.04.081-.082.122-.082.203 0 .08-.04.161-.04.242v2.062c0 .081 0 .162.04.202 0 .081.041.122.082.202.041.04.082.081.165.122.082.04.164.04.246.04.165 0 .288-.04.41-.121.124-.081.165-.202.165-.364v-.97h-.493v-.283h.822v1.213a.954.954 0 01-.082.363.716.716 0 01-.206.283.666.666 0 01-.287.162c-.124.04-.247.081-.37.081zm3.123-2.144l.246-.768.33-1.01h.369c-.041.08-.041.16-.082.282a5.389 5.389 0 00-.124.405c-.04.161-.123.282-.164.444-.04.162-.123.324-.164.445a4.994 4.994 0 01-.123.404c-.041.122-.083.203-.083.283v1.658h-.328v-1.658c-.041-.04-.041-.161-.082-.283a5.035 5.035 0 01-.124-.404c-.04-.162-.123-.283-.164-.445-.041-.162-.123-.323-.164-.444a5.026 5.026 0 00-.123-.405c-.042-.121-.083-.202-.083-.283h.37l.329 1.01c0 .041.04.082.04.163.042.08.042.161.083.242.041.081.041.162.082.243-.082.04-.041.08-.041.121z" fill="#fff"/></g><defs><clipPath id="clip0_393_281"><path fill="#fff" d="M0 0h79v86H0z"/></clipPath></defs></svg>