<svg width="78" height="86" fill="none" xmlns="http://www.w3.org/2000/svg"><g clip-path="url(#clip0_350_2077)"><path d="M53.298 3.882a1.944 1.944 0 001.947-1.941A1.944 1.944 0 0053.298 0a1.944 1.944 0 00-1.947 1.94c0 1.073.872 1.942 1.947 1.942z" fill="#3AADCC"/><path d="M48.025 13.1a1.944 1.944 0 001.947-1.94 1.944 1.944 0 00-1.947-1.941 1.944 1.944 0 00-1.947 1.94c0 1.072.872 1.941 1.947 1.941z" fill="#5D009F"/><path d="M28.923 5.944a1.944 1.944 0 001.947-1.941 1.944 1.944 0 00-1.947-1.941 1.944 1.944 0 00-1.947 1.94c0 1.073.872 1.942 1.947 1.942z" fill="#3AADCC"/><path d="M38.818 11.604a1.944 1.944 0 001.947-1.94 1.944 1.944 0 00-1.947-1.941 1.944 1.944 0 00-1.947 1.94c0 1.072.872 1.941 1.947 1.941z" fill="#5D009F"/><path d="M30.623 27.615a1.944 1.944 0 001.947-1.94 1.944 1.944 0 00-1.947-1.941 1.944 1.944 0 00-1.947 1.94c0 1.073.871 1.941 1.947 1.941z" fill="#3AADCC"/><path d="M24.7 37.36a1.944 1.944 0 001.948-1.941 1.944 1.944 0 00-1.947-1.941 1.944 1.944 0 00-1.947 1.94c0 1.073.871 1.941 1.947 1.941z" fill="#5D009F"/><path d="M41.61 30.688a1.944 1.944 0 001.948-1.94 1.944 1.944 0 00-1.947-1.941 1.944 1.944 0 00-1.947 1.94c0 1.072.872 1.941 1.947 1.941z" fill="#3AADCC"/><path d="M51.513 36.349a1.944 1.944 0 001.947-1.941c0-1.072-.871-1.94-1.947-1.94a1.944 1.944 0 00-1.947 1.94c0 1.072.872 1.94 1.947 1.94z" fill="#5D009F"/><path d="M6.492 69.14l-1.541-.769c-1.906-.93-3.813-2.345-3.813-5.58 0-3.396 2.637-6.266 6.247-6.266 2.514 0 4.948 1.213 6.084 2.021l-2.474 4.327c-.487-.405-2.272-1.294-3.408-1.294-.527 0-.973.364-.973.97 0 .607.406.85 1.257 1.254l2.19 1.091c2.15 1.092 3.53 2.79 3.53 5.378 0 3.68-2.718 6.469-6.369 6.469-3.123 0-5.922-1.537-7.179-2.466l2.799-4.61c.324.283 2.717 1.82 4.42 1.82.407 0 .893-.283.893-.85-.04-.646-.69-1.05-1.663-1.495zm15.736-1.092c0 1.537.487 2.547 1.744 2.547 1.257 0 1.744-1.01 1.744-2.547v-11.24h6.165v11.564c0 4.73-3.123 8.37-7.909 8.37s-7.91-3.6-7.91-8.37V56.808h6.166v11.24zm32.98-11.24v19.407h-6.166v-2.587c0-1.658.041-3.397.203-5.055l-.121-.04c-.447.809-1.217 1.981-1.988 3.073l-1.825 2.547h-.284l-1.744-2.466c-.771-1.092-1.623-2.386-2.069-3.154l-.122.04c.163 1.294.203 3.276.203 4.812v2.87h-6.084V56.849h4.949l4.989 6.954h.121l4.99-6.954h4.948v-.04zm12.776-.243c5.638 0 10.018 4.488 10.018 10.108s-4.38 10.108-10.018 10.108c-5.638 0-10.02-4.488-10.02-10.108s4.382-10.108 10.02-10.108zm0 14.03c2.15 0 3.853-1.698 3.853-3.922 0-2.264-1.704-3.922-3.853-3.922-2.15 0-3.854 1.699-3.854 3.922 0 2.224 1.663 3.922 3.854 3.922zM1.055 82.361v3.558H.69v-3.558H0v-.323h1.744v.323h-.69zm3.203 3.559l-.203-.93h-.973l-.203.93h-.324l.851-3.882h.366l.851 3.881h-.365zm-.69-3.316l-.202.93-.243 1.132h.851l-.243-1.132-.162-.93zm2.315 3.316v-3.882h.324v3.558h1.217v.323H5.883zm2.84 0v-3.882h1.622v.323H9.047v1.415h1.136v.324H9.047v1.496h1.298v.323H8.723zm3.281-2.953v2.912h-.324v-3.882h.324c.04.04.04.121.081.243.04.121.081.202.163.364.04.12.121.242.162.404.04.121.121.283.162.404.04.121.122.243.162.364.04.121.081.202.122.243l.406.97h.04v-2.952h.325v3.882h-.325c-.04-.04-.04-.121-.081-.243a2.572 2.572 0 00-.162-.364c-.04-.12-.122-.242-.162-.404-.041-.121-.122-.283-.163-.404-.04-.121-.121-.243-.162-.324-.04-.12-.081-.161-.081-.242l-.487-.97zm3.898-.606v3.558h-.365v-3.558h-.69v-.323h1.745v.323h-.69zm1.825 3.559v-.405h.405v.404h-.405zm2.593-3.559v3.558h-.365v-3.558h-.69v-.323h1.745v.323h-.69zm1.989 3.559v-3.882h1.622v.323h-1.298v1.415h1.136v.324h-1.136v1.496h1.298v.323H22.31zm3.774-3.923c.284 0 .487.081.65.243.161.162.242.364.242.647l-.365.08c0-.201-.04-.363-.121-.444-.081-.121-.203-.162-.365-.162-.081 0-.162 0-.244.04a.316.316 0 00-.162.162c-.04.081-.081.122-.081.203 0 .08-.04.161-.04.242v2.062c0 .081 0 .162.04.202 0 .081.04.122.081.203.04.04.081.08.162.12.082.041.163.041.244.041.162 0 .284-.04.365-.161.08-.081.121-.243.162-.445l.365.08c0 .284-.081.486-.243.647-.163.162-.365.203-.609.203-.284 0-.486-.081-.649-.243-.162-.162-.203-.364-.203-.647v-2.02c0-.122 0-.284.041-.405.04-.121.081-.242.162-.323a.727.727 0 01.284-.202c0-.081.122-.122.284-.122zm3.687 3.923V84.1h-1.055v1.82h-.324v-3.882h.324v1.738h1.055v-1.738h.324v3.881h-.324zm2.191-2.953v2.912h-.324v-3.882h.324c.04.04.04.121.081.243.04.121.081.202.163.364.04.12.121.242.162.404.04.121.122.283.162.404.04.121.122.243.162.364.04.121.081.202.122.243l.406.97h.04v-2.952h.325v3.882h-.325c-.04-.04-.04-.121-.08-.243-.041-.12-.082-.202-.163-.364-.04-.12-.122-.242-.162-.404-.041-.121-.122-.283-.163-.404-.04-.121-.121-.243-.162-.324-.04-.12-.081-.161-.081-.242l-.487-.97zm3.164 2.953v-3.882h.365v3.881h-.365zm3.65-.971c0 .242-.04.445-.121.566l.324.242-.162.203-.325-.243c-.121.121-.324.202-.608.202s-.527-.08-.649-.242c-.162-.162-.203-.364-.203-.688v-2.021c0-.122 0-.283.04-.405.041-.121.082-.242.163-.323a.726.726 0 01.284-.202c.122-.04.243-.081.406-.081.162 0 .324.04.405.08a.73.73 0 01.284.203c.081.08.122.202.162.323.041.122.041.243.041.405v1.98h-.04zm-.365-2.022c0-.08 0-.162-.04-.242 0-.081-.04-.122-.081-.203-.04-.04-.081-.12-.163-.12-.08-.041-.162-.041-.243-.041a.588.588 0 00-.284.08c-.081.041-.122.122-.162.162a.573.573 0 00-.081.243c0 .08-.04.162-.04.243v2.021c0 .081 0 .162.04.202.04.081.04.122.08.202.041.04.082.081.163.122.081.04.162.04.244.04.121 0 .243-.04.324-.08l-.365-.284.162-.202.325.243c0-.04.04-.081.04-.162v-2.224h.081zm3.571-.889v2.91c0 .324-.081.567-.203.729-.162.161-.365.242-.649.242-.284 0-.527-.08-.649-.242-.121-.162-.202-.364-.202-.688v-2.992h.324v2.992c0 .081 0 .162.04.202.041.081.041.122.082.203.04.04.08.08.162.12a.508.508 0 00.243.041c.203 0 .325-.08.406-.202a.813.813 0 00.122-.445v-2.951h.324v.08zm1.503 3.882v-3.882h1.623v.323h-1.298v1.415h1.136v.324h-1.136v1.496h1.298v.323h-1.623zm3.243 0v-.405h.405v.404h-.405zm2.394-3.559v3.558h-.365v-3.558h-.69v-.323h1.745v.323h-.69zm1.945 3.559v-3.882h1.623v.323H51.39v1.415h1.136v.324H51.39v1.496h1.298v.323h-1.623zm3.814-3.923c.284 0 .487.081.649.243.162.162.243.364.243.647l-.365.08c0-.201-.04-.363-.121-.444-.081-.121-.203-.162-.365-.162-.081 0-.163 0-.244.04a.317.317 0 00-.162.162c-.04.081-.081.122-.081.203 0 .08-.04.161-.04.242v2.062c0 .081 0 .162.04.202 0 .081.04.122.081.203.04.04.081.08.162.12.081.041.163.041.244.041.162 0 .284-.04.365-.161.08-.081.121-.243.162-.445l.365.08c0 .284-.081.486-.243.647-.163.162-.365.203-.609.203-.284 0-.487-.081-.649-.243-.162-.162-.203-.364-.203-.647v-2.02c0-.122 0-.284.04-.405.041-.121.082-.242.163-.323a.719.719 0 01.284-.202c-.04-.081.122-.122.284-.122zm3.651 3.923V84.1h-1.054v1.82h-.325v-3.882h.325v1.738h1.054v-1.738h.325v3.881h-.325zm2.227-2.952v2.91h-.324v-3.88h.324c.04.04.04.12.081.242.04.121.081.202.163.364.04.121.121.242.162.404.04.121.121.283.162.404.04.122.122.243.162.364.04.122.081.203.122.243l.406.97h.04v-2.951h.325v3.881h-.325c-.04-.04-.04-.121-.081-.242-.04-.122-.081-.203-.162-.364-.04-.121-.122-.243-.163-.404-.04-.122-.121-.284-.162-.405-.04-.121-.121-.243-.162-.323-.04-.122-.081-.162-.081-.243l-.487-.97zm4.828 1.981c0 .323-.08.566-.202.728-.163.161-.365.242-.65.242-.283 0-.527-.08-.648-.242-.163-.162-.203-.364-.203-.688v-2.021c0-.122 0-.283.04-.405.04-.121.081-.242.163-.323a.727.727 0 01.284-.202 1.2 1.2 0 01.405-.081c.162 0 .325.04.406.08a.738.738 0 01.284.203c.08.08.121.202.162.323.04.122.04.243.04.405v1.98h-.08zm-.365-2.022c0-.08 0-.162-.04-.242 0-.081-.04-.122-.081-.203-.04-.04-.081-.12-.163-.12-.08-.041-.162-.041-.243-.041a.588.588 0 00-.284.08c-.081.041-.122.122-.162.162a.573.573 0 00-.081.243c0 .08-.04.162-.04.243v2.021c0 .081 0 .162.04.202.04.081.04.122.08.202.041.04.082.081.163.122a.52.52 0 00.243.04c.203 0 .325-.08.406-.202a.813.813 0 00.122-.445v-2.062h.04zm1.869 2.993v-3.882h.325v3.558h1.216v.323H67.09zm4.54-.971c0 .323-.082.566-.203.728-.163.161-.366.242-.65.242-.283 0-.527-.08-.648-.242-.122-.162-.203-.364-.203-.688v-2.021c0-.122 0-.283.04-.405.04-.121.082-.242.163-.323a.726.726 0 01.283-.202c.122-.04.244-.081.406-.081.162 0 .325.04.406.08a.738.738 0 01.284.203c.08.08.121.202.162.323.04.122.04.243.04.405v1.98h-.08zm-.325-2.022c0-.08 0-.162-.04-.242 0-.081-.041-.122-.082-.203-.04-.04-.08-.12-.162-.12-.081-.041-.162-.041-.243-.041a.591.591 0 00-.284.08c-.082.041-.122.122-.163.162a.572.572 0 00-.08.243c0 .08-.041.162-.041.243v2.021c0 .081 0 .162.04.202.04.081.04.122.081.202.041.04.081.081.163.122.08.04.162.04.243.04.203 0 .325-.08.406-.202a.812.812 0 00.121-.445v-2.062h.04zm2.677 3.033c-.284 0-.486-.081-.649-.243-.162-.162-.243-.364-.243-.647v-2.022c0-.161 0-.283.04-.404.041-.121.082-.243.163-.323a.723.723 0 01.284-.203c.121-.04.243-.08.405-.08.284 0 .487.08.609.202.162.121.202.364.243.606l-.325.081c0-.202-.04-.364-.121-.445a.515.515 0 00-.365-.161c-.081 0-.162 0-.244.04a.316.316 0 00-.162.162c-.04.08-.081.121-.081.202 0 .08-.04.162-.04.243v2.062c0 .08 0 .161.04.202 0 .08.04.121.081.202.04.04.081.08.162.121.082.04.163.04.244.04a.69.69 0 00.405-.12c.122-.081.163-.203.163-.364v-.97h-.487v-.284h.811v1.213c0 .121-.04.283-.081.364-.04.121-.122.202-.203.283a.655.655 0 01-.284.162c-.121.04-.243.08-.365.08zm3.085-2.143l.243-.769.325-1.01H78c-.041.08-.041.161-.082.283-.04.12-.08.242-.121.404-.04.162-.122.283-.162.445-.041.161-.122.323-.163.445-.04.161-.08.282-.121.404-.041.121-.082.202-.082.283v1.658h-.324v-1.658c-.04-.04-.04-.162-.081-.283-.04-.122-.081-.243-.122-.404-.04-.162-.121-.284-.162-.445-.04-.162-.122-.324-.162-.445-.04-.162-.082-.283-.122-.404-.04-.122-.081-.203-.081-.283h.365l.324 1.01c0 .04.041.081.041.162.04.081.04.162.081.243.04.08.04.162.081.242-.08.04-.04.081-.04.122z" fill="#0E0E0E"/></g><defs><clipPath id="clip0_350_2077"><path fill="#fff" d="M0 0h78v86H0z"/></clipPath></defs></svg>