<svg width="15" height="15" fill="none" xmlns="http://www.w3.org/2000/svg"><path d="M13.777 14.625L9.875 10.7c-.5.433-1.08.77-1.738 1.013a5.937 5.937 0 01-2.062.362c-1.7 0-3.138-.587-4.313-1.762C.588 9.136 0 7.707 0 6.024c0-1.667.588-3.088 1.762-4.263C2.938.588 4.367 0 6.05 0c1.683 0 3.112.588 4.288 1.762C11.513 2.938 12.1 4.359 12.1 6.026c0 .7-.12 1.383-.362 2.05a5.87 5.87 0 01-1.038 1.8l3.927 3.95a.55.55 0 01.175.4c0 .15-.067.283-.2.4a.545.545 0 01-.425.2.475.475 0 01-.4-.2zM6.075 10.95c1.35 0 2.5-.48 3.45-1.438.95-.958 1.425-2.12 1.425-3.487S10.475 3.5 9.525 2.55c-.95-.95-2.1-1.425-3.45-1.425-1.383 0-2.55.475-3.5 1.425-.95.95-1.425 2.108-1.425 3.475s.475 2.53 1.425 3.487c.95.959 2.117 1.438 3.5 1.438z" fill="#5D009F"/></svg>